<?xml version="1.0" encoding="UTF-8"?>
<!DOCTYPE svg PUBLIC "-//W3C//DTD SVG 1.1//EN" "http://www.w3.org/Graphics/SVG/1.1/DTD/svg11.dtd">
<!-- Creator: CorelDRAW -->
<svg xmlns="http://www.w3.org/2000/svg" xml:space="preserve" width="3.32552in" height="2.95846in" version="1.1" style="shape-rendering:geometricPrecision; text-rendering:geometricPrecision; image-rendering:optimizeQuality; fill-rule:evenodd; clip-rule:evenodd"
viewBox="0 0 606.11 539.21"
 xmlns:xlink="http://www.w3.org/1999/xlink"
 xmlns:xodm="http://www.corel.com/coreldraw/odm/2003">
 <defs>
  <style type="text/css">
   <![CDATA[
    .fil0 {fill:#DFDFCD}
   ]]>
  </style>
 </defs>
 <g id="Layer_x0020_1">
  <metadata id="CorelCorpID_0Corel-Layer"/>
  <g id="_2579541137200">
   <path class="fil0" d="M298.65 42.04c11.24,-4.93 13.17,4.17 17.16,10.86l78.84 136.31c31.01,51.93 58.7,103.21 90.1,155.89 15.47,25.96 29.26,52.63 45.33,78.46 7.78,12.51 14.83,25.59 22.63,39.21 27.16,47.46 18.93,35.62 -121.52,35.62l-368.26 0.01c-32.76,0.13 -23.89,-10.29 -12.85,-30.13l202.2 -350.06c8.36,-13.83 14.18,-24.54 22.85,-39.14 3.91,-6.58 6.76,-12.49 11.16,-19.64 7.1,-11.56 6.2,-14.67 12.37,-17.38zm-298.47 450.91c1.8,20.8 15.73,35.12 30.03,41.55 15.38,6.91 48.71,4.18 68.07,4.18l428.64 0c24.17,0 45.84,1.44 60.92,-11.27 11.34,-9.55 22.01,-27.98 17,-50.48 -2.78,-12.51 -41.45,-75.8 -50.65,-92.24 -17.41,-31.1 -34.78,-59.78 -52.43,-90.42l-157.36 -272.79c-13.09,-20.54 -60.58,-40.52 -89.82,12.09 -17.01,30.61 -34.11,60.21 -52.24,90.56 -17.84,29.85 -34.03,60.39 -52.25,90.64 -9.13,15.15 -17.4,29.72 -26.55,45.69l-78.07 135.54c-8.24,14.87 -17.96,32 -26.31,45.75 -8.35,13.76 -20.81,30.21 -18.99,51.22z"/>
   <path class="fil0" d="M290.14 356.39c2.57,3.57 0.54,3.54 4.59,6.4 1.79,1.27 4.16,1.49 7.3,3.61 18.19,-3.33 15.09,-15.94 17.95,-46.33l11.59 -118.62c2.21,-22.12 0.13,-40.4 -18.37,-45.8 -16.09,-4.7 -34.86,0.54 -38.83,22.94 -2.49,14.09 7.5,97.76 9.46,118.55 1.54,16.27 2.73,44.52 6.31,59.24z"/>
   <path class="fil0" d="M294.71 394c-39.47,11.6 -20.59,69.45 17.43,56.42 33.88,-11.61 21.06,-67.74 -17.43,-56.42z"/>
  </g>
 </g>
</svg>
