<?xml version="1.0" encoding="UTF-8"?>
<!DOCTYPE svg PUBLIC "-//W3C//DTD SVG 1.1//EN" "http://www.w3.org/Graphics/SVG/1.1/DTD/svg11.dtd">
<!-- Creator: CorelDRAW -->
<svg xmlns="http://www.w3.org/2000/svg" xml:space="preserve" width="1.05314in" height="1.31568in" version="1.1" style="shape-rendering:geometricPrecision; text-rendering:geometricPrecision; image-rendering:optimizeQuality; fill-rule:evenodd; clip-rule:evenodd"
viewBox="0 0 137.44 171.71"
 xmlns:xlink="http://www.w3.org/1999/xlink"
 xmlns:xodm="http://www.corel.com/coreldraw/odm/2003">
 <defs>
  <style type="text/css">
   <![CDATA[
    .fil0 {fill:black}
   ]]>
  </style>
 </defs>
 <g id="Layer_x0020_1">
  <metadata id="CorelCorpID_0Corel-Layer"/>
  <g id="_2543652500688">
   <path class="fil0" d="M68.1 159.73c-16.97,-17.7 -50.42,-50.8 -57.38,-77.19 -10.52,-39.89 22.32,-73.99 58.55,-73.61 35.27,0.37 68.68,34.74 57.06,74.46 -3.74,12.81 -11.13,22.74 -18.62,33.17 -6.15,8.56 -33.61,40.26 -39.6,43.17zm0.02 11.97c7.11,-2.87 31.13,-30.8 38.36,-39.06 8.26,-9.45 24.98,-32.24 28.93,-48.39 11.12,-45.43 -25.12,-83.95 -66.13,-84.25 -42.1,-0.3 -77.63,37.83 -67.55,83.49 6.12,27.73 50.8,75.32 66.39,88.21z"/>
   <path class="fil0" d="M61.64 50.37c24.17,-10.57 37.32,27.05 14.35,35.63 -22.89,8.55 -39.25,-24.73 -14.35,-35.63zm-21.02 20.83c3.56,36.52 60.09,31.23 55.99,-6.74 -3.79,-35.02 -59.71,-31.36 -55.99,6.74z"/>
  </g>
 </g>
</svg>
